# xmcd
#
# Track frame offsets:
#	150
#	53431
#	96463
#	125705
#	174226
#	219312
#	274826
#	310510
#
# Disc length: 4655 seconds
# Revision: 0
# Processed by: cddbd v1.5.2PL0 Copyright (c) Steve Scherf et al.
# Submitted via: dBpowerAMP V12.0
#
DISCID=68122d08
DTITLE=Various Artist - Die unsichtbaren Stimmen [CD1)
DYEAR=1900
DGENRE=
TTITLE0=Uno - Das Mädchen im Baum (Pajarita)
TTITLE1=Uno - Das Mädchen im Baum (Pajarita)
TTITLE2=Uno - Das Mädchen im Baum (Pajarita)
TTITLE3=Uno - Das Mädchen im Baum (Pajarita)
TTITLE4=Uno - Das Mädchen im Baum (Pajarita)
TTITLE5=Dos - Seltsame Drähte und gestohlene Sakramente (Pajarita)
TTITLE6=Dos - Seltsame Drähte und gestohlene Sakramente (Pajarita)
TTITLE7=Dos - Seltsame Drähte und gestohlene Sakramente (Pajarita)
EXTD=
EXTT0=
EXTT1=
EXTT2=
EXTT3=
EXTT4=
EXTT5=
EXTT6=
EXTT7=
PLAYORDER=
